<?xml version="1.0" encoding="utf-8"?>
<!-- Generated by IcoMoon.io -->
<!DOCTYPE svg PUBLIC "-//W3C//DTD SVG 1.1//EN" "http://www.w3.org/Graphics/SVG/1.1/DTD/svg11.dtd">
<svg version="1.1" xmlns="http://www.w3.org/2000/svg" xmlns:xlink="http://www.w3.org/1999/xlink" width="64" height="320" viewBox="0 0 64 320">
<svg id="icon-clubs" width="64" height="64" viewBox="0 0 64 64" x="0" y="0" fill="#F0F">
<path d="M49.177 24.548c-3.69 0-7.005 1.537-9.366 4.043-1 1.061-2.735 2.32-4.612 3.426 0.882-3.367 3.667-7.606 5.602-9.466 2.477-2.386 3.999-5.739 3.999-9.469 0-7.181-5.717-13.006-12.799-13.082-7.082 0.076-12.8 5.902-12.8 13.082 0 3.729 1.521 7.083 3.999 9.469 1.935 1.86 4.72 6.099 5.602 9.466-1.878-1.106-3.613-2.364-4.613-3.426-2.36-2.506-5.676-4.043-9.366-4.043-7.149 0-12.943 5.854-12.943 13.083 0 7.227 5.793 13.084 12.943 13.084 3.69 0 7.005-1.585 9.366-4.091 1.050-1.117 2.903-2.509 4.893-3.664-0.188 9.231-4.596 16.011-9.082 18.682v2.359h24.001v-2.359c-4.487-2.671-8.895-9.451-9.083-18.682 1.991 1.156 3.843 2.548 4.893 3.664 2.36 2.506 5.675 4.091 9.366 4.091 7.149 0 12.942-5.856 12.942-13.084-0-7.229-5.793-13.083-12.943-13.083z"></path>
</svg>
<svg id="icon-twitter" width="64" height="64" viewBox="0 0 64 64" x="0" y="64">
<path d="M64 14.15c-2.35 1.050-4.888 1.75-7.538 2.062 2.712-1.625 4.788-4.2 5.775-7.262-2.538 1.5-5.35 2.6-8.337 3.188-2.4-2.55-5.813-4.138-9.587-4.138-7.25 0-13.125 5.875-13.125 13.125 0 1.025 0.113 2.025 0.337 2.988-10.913-0.55-20.587-5.775-27.063-13.725-1.125 1.938-1.775 4.2-1.775 6.6 0 4.55 2.312 8.575 5.838 10.925-2.15-0.063-4.175-0.663-5.95-1.637 0 0.050 0 0.113 0 0.163 0 6.363 4.525 11.675 10.537 12.875-1.1 0.3-2.262 0.462-3.463 0.462-0.85 0-1.662-0.087-2.475-0.237 1.675 5.212 6.525 9.012 12.262 9.125-4.5 3.525-10.15 5.625-16.313 5.625-1.063 0-2.1-0.063-3.138-0.188 5.825 3.737 12.725 5.9 20.137 5.9 24.15 0 37.362-20.013 37.362-37.362 0-0.575-0.013-1.137-0.038-1.7 2.563-1.837 4.788-4.15 6.55-6.787z"></path>
</svg>
<svg id="icon-vine" width="64" height="64" viewBox="0 0 64 64" x="0" y="128">
<path d="M60.050 31.813c-1.65 0.375-3.237 0.55-4.675 0.55-8.075 0-14.288-5.637-14.288-15.45 0-4.813 1.862-7.3 4.487-7.3 2.5 0 4.163 2.238 4.163 6.788 0 2.587-0.688 5.425-1.2 7.1 0 0 2.487 4.337 9.288 3.012 1.45-3.212 2.225-7.363 2.225-11 0-9.8-5-15.512-14.163-15.512-9.425 0-14.938 7.237-14.938 16.788 0 9.462 4.425 17.575 11.712 21.275-3.063 6.138-6.962 11.538-11.038 15.612-7.375-8.925-14.050-20.825-16.788-44.063h-10.887c5.037 38.7 20.025 51.025 24 53.388 2.238 1.35 4.175 1.287 6.225 0.125 3.225-1.825 12.887-11.5 18.25-22.813 2.25 0 4.95-0.263 7.638-0.875v-7.625z"></path>
</svg>
<svg id="icon-appleinc" width="64" height="64" viewBox="0 0 64 64" x="0" y="192">
<path d="M49.469 34.006c-0.081-8.105 6.61-11.992 6.909-12.185-3.76-5.501-9.616-6.255-11.703-6.342-4.984-0.505-9.725 2.934-12.254 2.934-2.523 0-6.426-2.86-10.559-2.784-5.432 0.081-10.441 3.159-13.238 8.024-5.644 9.794-1.445 24.303 4.056 32.245 2.688 3.888 5.893 8.255 10.102 8.099 4.053-0.162 5.585-2.622 10.485-2.622s6.277 2.622 10.566 2.542c4.361-0.081 7.124-3.962 9.793-7.862 3.087-4.511 4.358-8.877 4.433-9.102-0.097-0.044-8.504-3.265-8.588-12.946zM41.41 10.22c2.234-2.71 3.741-6.47 3.33-10.22-3.217 0.131-7.117 2.143-9.426 4.847-2.071 2.398-3.884 6.227-3.398 9.902 3.592 0.28 7.258-1.825 9.494-4.529z"></path>
</svg>
</svg>
